<?xml version="1.0" encoding="UTF-8" standalone="no"?>
<svg
   xmlns:dc="http://purl.org/dc/elements/1.1/"
   xmlns:cc="http://creativecommons.org/ns#"
   xmlns:rdf="http://www.w3.org/1999/02/22-rdf-syntax-ns#"
   xmlns:svg="http://www.w3.org/2000/svg"
   xmlns="http://www.w3.org/2000/svg"
   xmlns:sodipodi="http://sodipodi.sourceforge.net/DTD/sodipodi-0.dtd"
   xmlns:inkscape="http://www.inkscape.org/namespaces/inkscape"
   version="1.1"
   id="svg2"
   xml:space="preserve"
   width="155.588"
   height="235.42133"
   viewBox="0 0 155.588 235.42133"
   sodipodi:docname="BarioNeal-Mark.ai"><metadata
     id="metadata8"><rdf:RDF><cc:Work
         rdf:about=""><dc:format>image/svg+xml</dc:format><dc:type
           rdf:resource="http://purl.org/dc/dcmitype/StillImage" /></cc:Work></rdf:RDF></metadata><defs
     id="defs6"><clipPath
       clipPathUnits="userSpaceOnUse"
       id="clipPath18"><path
         d="M 0,176.566 H 116.691 V 0 H 0 Z"
         id="path16" /></clipPath></defs><sodipodi:namedview
     pagecolor="#ffffff"
     bordercolor="#666666"
     borderopacity="1"
     objecttolerance="10"
     gridtolerance="10"
     guidetolerance="10"
     inkscape:pageopacity="0"
     inkscape:pageshadow="2"
     inkscape:window-width="640"
     inkscape:window-height="480"
     id="namedview4" /><g
     id="g10"
     inkscape:groupmode="layer"
     inkscape:label="BarioNeal-Mark"
     transform="matrix(1.3333333,0,0,-1.3333333,0,235.42133)"><g
       id="g12"><g
         id="g14"
         clip-path="url(#clipPath18)"><g
           id="g20"
           transform="translate(87.1826,87.1513)"><path
             d="M 0,0 0.017,0.055 -3.119,1.053 -3.131,1.016 C -6.48,1.961 -9.984,2.53 -13.6,2.662 v 0.071 h -14.271 v 86.682 h 0.029 -0.029 -1.782 -1.326 -0.134 -0.049 L -87.183,-87.151 h 3.447 L -31.162,77.984 V -87.05 h 0.098 -0.002 1.645 c 0.242,-0.003 0.468,10e-4 0.703,0 h 0.956 0.093 c 6.869,-0.065 9.939,0 11.342,0 0.479,0 0.765,-0.005 0.944,0 24.755,0.029 44.892,20.173 44.892,44.905 C 29.509,-22.785 17.192,-6.261 0,0 m -15.245,-0.6 c 3.85,0 7.574,-0.538 11.114,-1.527 l -23.74,-74.615 v 76.177 z m -0.142,-83.158 -0.19,-0.004 c -0.94,-0.005 -6.339,0.04 -11.047,0.083 l 25.629,80.551 c 15.864,-5.836 27.213,-21.122 27.213,-39.017 0,-22.918 -18.663,-41.586 -41.605,-41.613"
             style="fill:#231f20;fill-opacity:1;fill-rule:nonzero;stroke:none"
             id="path22" /></g></g></g></g></svg>
