<?xml version="1.0" encoding="UTF-8" standalone="no"?><svg xmlns="http://www.w3.org/2000/svg" viewBox="0 0 73 145"><defs><style>.cls-1{fill:none;stroke:#231f20;stroke-linecap:round;stroke-linejoin:round;}</style></defs><g id="Layer_2" data-name="Layer 2"><g id="Layer_1-2" data-name="Layer 1"><path class="cls-1" d="M72.5,90.5v-63a9,9,0,0,0-18,0v45"/><path class="cls-1" d="M54.5,72.5v-54a9,9,0,0,0-18,0v54"/><path class="cls-1" d="M36.5,72.5V9.5a9,9,0,0,0-18,0v63"/><path class="cls-1" d="M18.5,81.5v-63a9,9,0,0,0-18,0v81"/><path class="cls-1" d="M.5,72.5v36a36,36,0,0,0,72,0v-36h-54"/><path class="cls-1" d="M36.5,126.5a18,18,0,0,1-18-18v-36a9,9,0,0,0-18,0v36a36,36,0,0,0,36,36"/><circle class="cls-1" cx="36.5" cy="99.5" r="9"/><circle class="cls-1" cx="36.5" cy="99.5" r="6.75"/></g></g></svg>