<?xml version="1.0" encoding="UTF-8" standalone="no"?><svg xmlns="http://www.w3.org/2000/svg" viewBox="0 0 82 145"><defs><style>.cls-1{fill:none;stroke:#231f20;stroke-linecap:round;stroke-linejoin:round;}</style></defs><g id="Layer_2" data-name="Layer 2"><g id="Layer_1-2" data-name="Layer 1"><path class="cls-1" d="M81.5,90.5v-63a9,9,0,0,0-18,0v45"/><path class="cls-1" d="M63.5,72.5v-54a9,9,0,0,0-18,0v54"/><path class="cls-1" d="M45.5,72.5V9.5a9,9,0,0,0-18,0v54"/><path class="cls-1" d="M9.5,108.5a36,36,0,0,0,72,0v-36h-45"/><path class="cls-1" d="M18.5,36.5a9,9,0,0,0-9,9v9a9,9,0,0,0,18,0v-9A9,9,0,0,0,18.5,36.5Z"/><path class="cls-1" d="M45.5,126.5a18,18,0,0,1-18-18,9,9,0,0,0-18,0,36,36,0,0,0,36,36"/><polygon class="cls-1" points="9.5 63.5 0.5 72.5 0.5 90.5 9.5 99.5 27.5 99.5 36.5 90.5 36.5 72.5 27.5 63.5 9.5 63.5"/><polygon class="cls-1" points="11.5 68 5 74.5 5 88.5 11.5 95 25.5 95 32 88.5 32 74.5 25.5 68 11.5 68"/><polygon class="cls-1" points="14 72.5 9.5 77 9.5 86 14 90.5 23 90.5 27.5 86 27.5 77 23 72.5 14 72.5"/><polygon class="cls-1" points="9.5 63.5 14 72.5 9.5 77 0.5 72.5 9.5 63.5"/><polygon class="cls-1" points="27.5 63.5 23 72.5 27.5 77 36.5 72.5 27.5 63.5"/><polygon class="cls-1" points="36.5 90.5 27.5 86 23 90.5 27.5 99.5 36.5 90.5"/><polygon class="cls-1" points="14 90.5 9.5 86 0.5 90.5 9.5 99.5 14 90.5"/></g></g></svg>