<?xml version="1.0" encoding="UTF-8" standalone="no"?><svg xmlns="http://www.w3.org/2000/svg" viewBox="0 0 73 145"><defs><style>.cls-1{fill:none;stroke:#231f20;stroke-linecap:round;stroke-linejoin:round;}</style></defs><g id="Layer_2" data-name="Layer 2"><g id="Layer_1-2" data-name="Layer 1"><path class="cls-1" d="M.5,108.5a36,36,0,0,0,72,0v-36"/><path class="cls-1" d="M18.5,72.5v-18a9,9,0,0,0-18,0v27"/><path class="cls-1" d="M36.5,72.5v-18a9,9,0,0,0-18,0v18"/><path class="cls-1" d="M45.5,90.5a9,9,0,0,0,9-9v-27a9,9,0,0,0-18,0v18"/><path class="cls-1" d="M63.5,45.5a9,9,0,0,0-9,9v27a9,9,0,0,0,18,0v-27A9,9,0,0,0,63.5,45.5Z"/><path class="cls-1" d="M27.5,27.5a9,9,0,0,1,18,0"/><path class="cls-1" d="M18.5,27.5a18,18,0,0,1,36,0"/><path class="cls-1" d="M9.5,27.5a27,27,0,0,1,54,0"/><path class="cls-1" d="M36.5,126.5a18,18,0,0,1-18-18v-18h27a9,9,0,0,0,0-18H9.5a9,9,0,0,0-9,9v27a36,36,0,0,0,36,36"/></g></g></svg>